
<svg class="comb-grid" width="100%" height="100%" viewBox="0 0 49 52" version="1.1" xmlns="http://www.w3.org/2000/svg" xmlns:xlink="http://www.w3.org/1999/xlink" xml:space="preserve" xmlns:serif="http://www.serif.com/" style="fill-rule:evenodd;clip-rule:evenodd;stroke-linejoin:round;stroke-miterlimit:2;">
    <g>
        <g transform="matrix(1,0,0,1,29.079,15.016)">
            <path d="M0,-15.016L-8.669,-15.016L-13.004,-7.508L-8.669,0L0,0L4.335,-7.508L0,-15.016Z" style="fill-rule:nonzero;"/>
        </g>
        <g transform="matrix(1,0,0,1,36.4841,9.2807)">
            <path d="M0,15.016L8.67,15.016L13.004,7.508L8.67,0L0,0L-4.335,7.508L0,15.016Z" style="fill-rule:nonzero;"/>
        </g>
        <g transform="matrix(1,0,0,1,45.1537,27.8419)">
            <path d="M0,15.016L4.335,7.508L0,0L-8.67,0L-13.004,7.508L-8.67,15.016L0,15.016Z" style="fill-rule:nonzero;"/>
        </g>
        <g transform="matrix(1,0,0,1,20.4097,37.1224)">
            <path d="M0,15.016L8.669,15.016L13.004,7.508L8.669,0L0,0L-4.335,7.508L0,15.016Z" style="fill-rule:nonzero;"/>
        </g>
        <g transform="matrix(1,0,0,1,13.0046,27.8419)">
            <path d="M0,15.016L4.335,7.508L0,0L-8.67,0L-13.004,7.508L-8.67,15.016L0,15.016Z" style="fill-rule:nonzero;"/>
        </g>
        <g transform="matrix(1,0,0,1,4.335,9.2807)">
            <path d="M0,15.016L8.67,15.016L13.004,7.508L8.67,0L0,0L-4.335,7.508L0,15.016Z" style="fill-rule:nonzero;"/>
        </g>
        <g transform="matrix(1,0,0,1,20.4097,18.5613)">
            <path d="M0,15.016L8.669,15.016L13.004,7.508L8.669,0L0,0L-4.335,7.508L0,15.016Z" style="fill-rule:nonzero;"/>
        </g>
    </g>
</svg>
