<?xml version="1.0" encoding="UTF-8" standalone="no"?>
<!DOCTYPE svg PUBLIC "-//W3C//DTD SVG 1.1//EN" "http://www.w3.org/Graphics/SVG/1.1/DTD/svg11.dtd">
<svg class="honeypot" width="100%" height="100%" viewBox="0 0 87 104" version="1.1" xmlns="http://www.w3.org/2000/svg" xmlns:xlink="http://www.w3.org/1999/xlink" xml:space="preserve" xmlns:serif="http://www.serif.com/" style="fill-rule:evenodd;clip-rule:evenodd;stroke-linejoin:round;stroke-miterlimit:10;">
    <g transform="matrix(1,0,0,1,-6485,-268)">
        <g transform="matrix(1,0,0,1,5850,0)">
            <g id="honey">
                <g transform="matrix(1,0,0,1,709.87,270.001)" class="hex1">
                    <path d="M0,12.101L-63.38,12.101C-65.029,12.101 -66.366,10.764 -66.366,9.115C-66.366,4.081 -62.284,0 -57.25,0L-6.13,0C-1.096,0 2.986,4.081 2.986,9.115C2.986,10.764 1.649,12.101 0,12.101Z" style="fill-rule:nonzero;stroke:rgb(206,206,206);stroke-width:3px;"/>
                </g>
                <!-- <g transform="matrix(-1,0,0,1,637.528,290.438)">
                    <path d="M-81.305,11.839L0,11.839L-9.349,0L-71.956,0L-81.305,11.839Z" style="fill-rule:nonzero;stroke:rgb(206,206,206);stroke-width:3px;"/>
                </g> -->
                <g transform="matrix(1,0,0,1,717.322,359.902)">
                    <path d="M0,-47.526C-0.979,-51.022 -2.245,-54.398 -3.774,-57.625L-74.191,-57.625C-75.72,-54.398 -76.984,-51.021 -77.963,-47.526C-79.496,-42.051 -80.322,-36.281 -80.322,-30.314C-80.322,-17.237 -76.397,-5.08 -69.664,5.049C-67.564,8.207 -64.016,10.099 -60.224,10.099L-17.737,10.099C-13.945,10.099 -10.397,8.207 -8.298,5.049C-1.564,-5.08 2.36,-17.237 2.36,-30.314C2.36,-36.281 1.533,-42.051 0,-47.526" style="fill-rule:nonzero;"/>
                </g>
                <g transform="matrix(1,0,0,1,717.322,359.902)">
                    <path d="M0,-47.526C-0.979,-51.022 -2.245,-54.398 -3.774,-57.625L-74.191,-57.625C-75.72,-54.398 -76.984,-51.021 -77.963,-47.526C-79.496,-42.051 -80.322,-36.281 -80.322,-30.314C-80.322,-17.237 -76.397,-5.08 -69.664,5.049C-67.564,8.207 -64.016,10.099 -60.224,10.099L-17.737,10.099C-13.945,10.099 -10.397,8.207 -8.298,5.049C-1.564,-5.08 2.36,-17.237 2.36,-30.314C2.36,-36.281 1.533,-42.051 0,-47.526Z" style="fill:none;fill-rule:nonzero;stroke:rgb(206,206,206);stroke-width:3px;"/>
                </g>
                <g transform="matrix(-1,0,0,1,1356.36,-245.46)">
                    <rect x="646.877" y="527.562" width="62.606" height="8.336" style="stroke:rgb(206,206,206);stroke-width:3px;"/>
                </g>
                <g transform="matrix(1,-0,-0,1,635,268)">
                    <use xlink:href="#_Image1" x="18.597" y="42.07" width="50px" height="53px"/>
                </g>
            </g>
        </g>
    </g>
   
</svg>
